<?xml version="1.0" encoding="utf-8"?>
<!-- Generator: Adobe Illustrator 24.0.1, SVG Export Plug-In . SVG Version: 6.00 Build 0)  -->
<svg version="1.1" id="Layer_1" xmlns="http://www.w3.org/2000/svg" xmlns:xlink="http://www.w3.org/1999/xlink" x="0px" y="0px"
	 viewBox="0 0 1525.03 320" style="enable-background:new 0 0 1525.03 320;" xml:space="preserve">
<style type="text/css">
	.st0{fill:#2D2E43;}
	.st1{fill:#3498DB;}
	.st2{fill:#138D75;}
	.st3{fill:#512E5F;}
	.st4{fill:#593CA8;}
	.st5{fill:#D35400;}
	.st6{fill:#9B59B6;}
	.st7{fill:#E52F1C;}
	.st8{fill:#FF812C;}
	.st9{fill:#E67E22;}
	.st10{fill:#52BE80;}
	.st11{fill:#CD6155;}
	.st12{fill:#D3222A;}
	.st13{fill:#FFF200;}
	.st14{fill:#FF7F00;}
	.st15{fill:#FFFFFF;}
	.st16{fill:none;}
	.st17{fill:url(#SVGID_1_);}
	.st18{fill:url(#SVGID_2_);}
	.st19{fill:url(#SVGID_3_);}
	.st20{fill:url(#SVGID_4_);}
	.st21{fill:url(#SVGID_5_);}
	.st22{fill:url(#SVGID_6_);}
	.st23{fill:url(#SVGID_7_);}
	.st24{fill:url(#SVGID_8_);}
	.st25{fill:url(#SVGID_9_);}
	.st26{fill:url(#SVGID_10_);}
	.st27{fill:url(#SVGID_11_);}
	.st28{fill:url(#SVGID_12_);}
	.st29{fill:url(#SVGID_13_);}
	.st30{fill:url(#SVGID_14_);}
	.st31{fill:url(#SVGID_15_);}
	.st32{fill:url(#SVGID_16_);}
	.st33{fill:url(#SVGID_17_);}
	.st34{fill:url(#SVGID_18_);}
	.st35{fill:url(#SVGID_19_);}
	.st36{fill:url(#SVGID_20_);}
	.st37{fill:url(#SVGID_21_);}
	.st38{fill:url(#SVGID_22_);}
	.st39{fill:url(#SVGID_23_);}
	.st40{fill:url(#SVGID_24_);}
	.st41{fill:url(#SVGID_25_);}
	.st42{fill:url(#SVGID_26_);}
	.st43{fill:url(#SVGID_27_);}
	.st44{fill:url(#SVGID_28_);}
</style>
<path class="st15" d="M431.88,72.71L370.49,320h-97.96L211.14,72.71h79.67l32.22,159.35c0-12.63,7.84-52.68,14.8-89.25
	c3.92-21.33,8.71-44.84,13.93-70.09H431.88z"/>
<path class="st15" d="M643.89,219.43H525.04v48.76h41.36V248.6l77.25,0.59l-0.19,36.41c0,10.45-18.29,34.39-43.1,34.39H489.77
	c-31.35,0-41.8-25.25-41.8-36.57V109.71c0-19.16,24.82-37.01,42.23-37.01h114.94c12.19,0,38.75,14.37,38.75,35.26V219.43z
	 M566.83,167.62v-42.67h-41.8v42.67H566.83z"/>
<path class="st15" d="M878.11,320h-77.06V124.52h-41.36V320h-77.5V72.71h77.5v18.29c3.92-3.05,7.4-6.09,10.45-9.14
	c5.66-4.79,12.63-9.14,18.29-9.14h38.75c37.01,0,50.94,17.85,50.94,43.54V320z"/>
<path class="st15" d="M1111.46,320h-77.06v-16.54c-3.05,3.05-6.09,6.09-9.14,8.27c-5.66,4.79-13.06,8.27-20.46,8.27h-50.07
	c-16.54,0-39.18-9.14-39.18-32.65v-177.2c0-20.9,13.93-37.44,40.49-37.44h48.76c9.14,0,16.54,3.92,21.77,7.84
	c3.05,2.18,5.66,4.79,7.84,7.4V0l77.06,0.56V320z M1034.39,267.32V124.95h-41.8v142.37H1034.39z"/>
<path class="st15" d="M1345.67,320h-77.5v-17.85c-6.97,4.79-20.46,17.85-30.91,17.85h-54.42c-21.33,0-33.52-12.63-33.52-33.96
	v-90.12c0-12.19,13.06-27.86,36.57-27.86h82.29v-43.54h-40.92v16.11l-76.81-0.83l-0.69-33.13c0-20.46,14.8-33.96,39.62-33.96h113.63
	c29.61,0,42.67,16.11,42.67,40.92V320z M1268.18,268.19v-49.2h-40.92v49.2H1268.18z"/>
<path class="st15" d="M1525.03,124.95h-28.3c-15.67,0-34.83,19.16-34.83,33.09L1461.47,320h-77.93V72.71h77.5l0.43,20.03
	c10.01-10.88,21.33-20.03,31.35-20.03h32.22V124.95z"/>
<g>
	<polygon class="st16" points="77.93,125.14 89.96,128.63 116.18,124.52 77.93,124.52 	"/>
	<linearGradient id="SVGID_1_" gradientUnits="userSpaceOnUse" x1="38.9659" y1="237.0105" x2="38.9659" y2="129.0642">
		<stop  offset="0" style="stop-color:#007A2C"/>
		<stop  offset="0.2698" style="stop-color:#017D2E"/>
		<stop  offset="0.4426" style="stop-color:#048536"/>
		<stop  offset="0.5882" style="stop-color:#0A9443"/>
		<stop  offset="0.7186" style="stop-color:#12A956"/>
		<stop  offset="0.8389" style="stop-color:#1CC46E"/>
		<stop  offset="0.9503" style="stop-color:#28E58B"/>
		<stop  offset="1" style="stop-color:#2FF69A"/>
	</linearGradient>
	<path class="st17" d="M77.93,125.14L1.07,102.85C0.34,106.06,0,109.27,0,112.33v113.4l77.93,17.32V125.14z"/>
	<linearGradient id="SVGID_2_" gradientUnits="userSpaceOnUse" x1="196.4184" y1="303.9284" x2="137.1796" y2="124.2372">
		<stop  offset="0.1726" style="stop-color:#750000"/>
		<stop  offset="0.3117" style="stop-color:#790000"/>
		<stop  offset="0.4435" style="stop-color:#840000"/>
		<stop  offset="0.5723" style="stop-color:#970000"/>
		<stop  offset="0.6994" style="stop-color:#B20000"/>
		<stop  offset="0.8243" style="stop-color:#D50000"/>
		<stop  offset="0.9475" style="stop-color:#FE0000"/>
		<stop  offset="0.9492" style="stop-color:#FF0000"/>
	</linearGradient>
	<path class="st18" d="M195.92,285.61v-173.6l-79.74,12.51h2.68v134.55l64.47,47.98C191.21,299.68,195.92,290.91,195.92,285.61z"/>
	<linearGradient id="SVGID_3_" gradientUnits="userSpaceOnUse" x1="1.0681" y1="98.9251" x2="195.9195" y2="98.9251">
		<stop  offset="0.1726" style="stop-color:#004291"/>
		<stop  offset="0.361" style="stop-color:#0A52A7"/>
		<stop  offset="0.7519" style="stop-color:#2379E0"/>
		<stop  offset="0.9492" style="stop-color:#318FFF"/>
	</linearGradient>
	<path class="st19" d="M77.93,124.52h38.25l79.74-12.51v-0.99c0-19.16-13.5-38.31-39.62-38.31H42.23
		c-25.84,0-37.77,15.09-41.16,30.14l76.86,22.29V124.52z"/>
	<linearGradient id="SVGID_4_" gradientUnits="userSpaceOnUse" x1="163.5351" y1="328.8569" x2="-14.1814" y2="249.8718">
		<stop  offset="0.2132" style="stop-color:#FFBC00"/>
		<stop  offset="0.3513" style="stop-color:#F4B500"/>
		<stop  offset="0.5966" style="stop-color:#D5A400"/>
		<stop  offset="0.8325" style="stop-color:#B29000"/>
	</linearGradient>
	<path class="st20" d="M118.86,268.19H77.93v-25.14L0,225.73v58.14C0,296.05,10.88,320,42.23,320h110.59
		c12.22,0,22.86-5.81,30.51-12.96l-64.47-47.98V268.19z"/>
</g>
</svg>
