<?xml version="1.0" encoding="utf-8"?>
<!-- Generator: Adobe Illustrator 24.0.1, SVG Export Plug-In . SVG Version: 6.00 Build 0)  -->
<svg version="1.1" id="Layer_1" xmlns="http://www.w3.org/2000/svg" xmlns:xlink="http://www.w3.org/1999/xlink" x="0px" y="0px"
	 viewBox="0 0 1496 313.91" style="enable-background:new 0 0 1496 313.91;" xml:space="preserve">
<style type="text/css">
	.st0{fill:#2D2E43;}
	.st1{fill:#3498DB;}
	.st2{fill:#138D75;}
	.st3{fill:#512E5F;}
	.st4{fill:#593CA8;}
	.st5{fill:#D35400;}
	.st6{fill:#9B59B6;}
	.st7{fill:#E52F1C;}
	.st8{fill:#FF812C;}
	.st9{fill:#E67E22;}
	.st10{fill:#52BE80;}
	.st11{fill:#CD6155;}
	.st12{fill:#D3222A;}
	.st13{fill:#FFF200;}
	.st14{fill:#FF7F00;}
	.st15{fill:#FFFFFF;}
	.st16{fill:none;}
	.st17{fill:url(#SVGID_1_);}
	.st18{fill:url(#SVGID_2_);}
	.st19{fill:url(#SVGID_3_);}
	.st20{fill:url(#SVGID_4_);}
	.st21{fill:url(#SVGID_5_);}
	.st22{fill:url(#SVGID_6_);}
	.st23{fill:url(#SVGID_7_);}
	.st24{fill:url(#SVGID_8_);}
	.st25{fill:url(#SVGID_9_);}
	.st26{fill:url(#SVGID_10_);}
	.st27{fill:url(#SVGID_11_);}
	.st28{fill:url(#SVGID_12_);}
	.st29{fill:url(#SVGID_13_);}
	.st30{fill:url(#SVGID_14_);}
	.st31{fill:url(#SVGID_15_);}
	.st32{fill:url(#SVGID_16_);}
	.st33{fill:url(#SVGID_17_);}
	.st34{fill:url(#SVGID_18_);}
	.st35{fill:url(#SVGID_19_);}
	.st36{fill:url(#SVGID_20_);}
	.st37{fill:url(#SVGID_21_);}
	.st38{fill:url(#SVGID_22_);}
	.st39{fill:url(#SVGID_23_);}
	.st40{fill:url(#SVGID_24_);}
	.st41{fill:url(#SVGID_25_);}
	.st42{fill:url(#SVGID_26_);}
	.st43{fill:url(#SVGID_27_);}
	.st44{fill:url(#SVGID_28_);}
</style>
<g>
	<path d="M423.66,71.32l-60.22,242.58h-96.09L207.12,71.32h78.15l31.6,156.31c0-12.39,7.69-51.68,14.52-87.55
		c3.84-20.93,8.54-43.99,13.67-68.76H423.66z"/>
	<path d="M631.64,215.25H515.04v47.83h40.57v-19.22l75.78,0.58l-0.18,35.72c0,10.25-17.94,33.74-42.28,33.74H480.45
		c-30.75,0-41-24.77-41-35.88V107.63c0-18.79,24.34-36.3,41.43-36.3h112.75c11.96,0,38.01,14.09,38.01,34.59V215.25z M556.04,164.43
		v-41.85h-41v41.85H556.04z"/>
	<path d="M861.39,313.91H785.8V122.15h-40.57v191.76H669.2V71.32h76.02v17.94c3.84-2.99,7.26-5.98,10.25-8.97
		c5.55-4.7,12.39-8.97,17.94-8.97h38.01c36.3,0,49.97,17.51,49.97,42.71V313.91z"/>
	<path d="M1090.3,313.91h-75.59v-16.23c-2.99,2.99-5.98,5.98-8.97,8.11c-5.55,4.7-12.81,8.11-20.07,8.11h-49.12
		c-16.23,0-38.44-8.97-38.44-32.03V108.05c0-20.5,13.67-36.73,39.72-36.73h47.84c8.97,0,16.23,3.84,21.35,7.69
		c2.99,2.14,5.55,4.7,7.69,7.26V0l75.59,0.55V313.91z M1014.7,262.23V122.57h-41v139.66H1014.7z"/>
	<path d="M1320.05,313.91h-76.02V296.4c-6.83,4.7-20.07,17.51-30.32,17.51h-53.38c-20.93,0-32.89-12.39-32.89-33.31v-88.41
		c0-11.96,12.81-27.33,35.87-27.33h80.72v-42.71h-40.14v15.8l-75.34-0.82l-0.68-32.5c0-20.07,14.52-33.31,38.87-33.31h111.47
		c29.04,0,41.86,15.8,41.86,40.15V313.91z M1244.03,263.08v-48.26h-40.14v48.26H1244.03z"/>
	<path d="M1496,122.57h-27.76c-15.38,0-34.17,18.79-34.17,32.46l-0.43,158.88h-76.45V71.32h76.02l0.43,19.65
		c9.82-10.68,20.93-19.65,30.75-19.65h31.6V122.57z"/>
	<g>
		<polygon class="st16" points="76.45,122.76 88.25,126.18 113.97,122.15 76.45,122.15 		"/>
		<linearGradient id="SVGID_1_" gradientUnits="userSpaceOnUse" x1="38.224" y1="232.4982" x2="38.224" y2="126.607">
			<stop  offset="0" style="stop-color:#007A2C"/>
			<stop  offset="0.2698" style="stop-color:#017D2E"/>
			<stop  offset="0.4426" style="stop-color:#048536"/>
			<stop  offset="0.5882" style="stop-color:#0A9443"/>
			<stop  offset="0.7186" style="stop-color:#12A956"/>
			<stop  offset="0.8389" style="stop-color:#1CC46E"/>
			<stop  offset="0.9503" style="stop-color:#28E58B"/>
			<stop  offset="1" style="stop-color:#2FF69A"/>
		</linearGradient>
		<path class="st17" d="M76.45,122.76l-75.4-21.87C0.34,104.04,0,107.19,0,110.19v111.24l76.45,16.99V122.76z"/>
		<linearGradient id="SVGID_2_" gradientUnits="userSpaceOnUse" x1="192.6789" y1="298.142" x2="134.5679" y2="121.8719">
			<stop  offset="0.1726" style="stop-color:#750000"/>
			<stop  offset="0.3117" style="stop-color:#790000"/>
			<stop  offset="0.4435" style="stop-color:#840000"/>
			<stop  offset="0.5723" style="stop-color:#970000"/>
			<stop  offset="0.6994" style="stop-color:#B20000"/>
			<stop  offset="0.8243" style="stop-color:#D50000"/>
			<stop  offset="0.9475" style="stop-color:#FE0000"/>
			<stop  offset="0.9492" style="stop-color:#FF0000"/>
		</linearGradient>
		<path class="st18" d="M192.19,280.17V109.88l-78.22,12.27h2.63v131.99l63.24,47.06C187.56,293.98,192.19,285.37,192.19,280.17z"/>
		<linearGradient id="SVGID_3_" gradientUnits="userSpaceOnUse" x1="1.0477" y1="97.0417" x2="192.1895" y2="97.0417">
			<stop  offset="0.1726" style="stop-color:#004291"/>
			<stop  offset="0.361" style="stop-color:#0A52A7"/>
			<stop  offset="0.7519" style="stop-color:#2379E0"/>
			<stop  offset="0.9492" style="stop-color:#318FFF"/>
		</linearGradient>
		<path class="st19" d="M76.45,122.15h37.52l78.22-12.27v-0.97c0-18.79-13.24-37.58-38.87-37.58H41.43
			c-25.35,0-37.05,14.8-40.38,29.57l75.4,21.87V122.15z"/>
		<linearGradient id="SVGID_4_" gradientUnits="userSpaceOnUse" x1="160.4216" y1="322.5959" x2="-13.9114" y2="245.1146">
			<stop  offset="0.2132" style="stop-color:#FFBC00"/>
			<stop  offset="0.3513" style="stop-color:#F4B500"/>
			<stop  offset="0.5966" style="stop-color:#D5A400"/>
			<stop  offset="0.8325" style="stop-color:#B29000"/>
		</linearGradient>
		<path class="st20" d="M116.59,263.08H76.45v-24.67L0,221.43v57.03c0,11.96,10.68,35.45,41.43,35.45h108.48
			c11.99,0,22.42-5.7,29.93-12.71l-63.24-47.06V263.08z"/>
	</g>
</g>
</svg>
