<?xml version="1.0" standalone="no"?>
<!DOCTYPE svg PUBLIC "-//W3C//DTD SVG 20010904//EN"
 "http://www.w3.org/TR/2001/REC-SVG-20010904/DTD/svg10.dtd">
<svg version="1.0" xmlns="http://www.w3.org/2000/svg"
 width="512.000000pt" height="512.000000pt" viewBox="0 0 512.000000 512.000000"
 preserveAspectRatio="xMidYMid meet">
<metadata>
Created by potrace 1.11, written by Peter Selinger 2001-2013
</metadata>
<g transform="translate(0.000000,512.000000) scale(0.100000,-0.100000)"
fill="#000000" stroke="none">
<path d="M1425 4675 c-254 -49 -432 -196 -511 -425 -14 -40 -22 -76 -17 -80 4
-4 143 -46 308 -93 165 -48 449 -130 630 -182 l330 -96 377 0 378 1 2 -1161 3
-1162 550 -409 c302 -225 555 -407 562 -406 26 6 125 136 166 217 l42 85 0
1580 c0 1777 6 1626 -77 1796 -76 158 -227 277 -410 327 -57 16 -160 17 -1163
19 -885 2 -1114 0 -1170 -11z"/>
<path d="M870 2668 l0 -613 653 -144 c358 -80 660 -146 670 -149 16 -4 17 37
17 757 l0 761 -670 0 -670 0 0 -612z"/>
</g>
</svg>
