<svg id="Layer_1" data-name="Layer 1" xmlns="http://www.w3.org/2000/svg" viewBox="0 0 520 480"><defs><style>.cls-1{fill:#fff;}.cls-2{fill:#79895e;}</style></defs><title>Untitled-1</title><rect class="cls-1" width="520" height="480"/><rect class="cls-1" y="130" width="520" height="220"/><path class="cls-2" d="M110.58,186.42v4.38c0,12.83-2.13,30.82-25.86,30.82-20.79,0-25.19-13-25.19-30.12V134.92c0-17.32,7.86-28.81,25.48-28.81,21,0,25.07,14,25.07,29.51v5H92.73v-7.06c0-7.45-1.74-11.7-7.76-11.7s-7.82,4.09-7.82,11.77V193c0,7.33,1.46,13,8,13,6.25,0,7.91-4.95,7.91-13.3v-6.28Z"/><path class="cls-2" d="M137.68,190l-3.93,30H116.14l18.08-112.23h24.45L177.44,220H159.35l-4.41-30ZM152.89,174c-2.56-19.06-5-37.15-6.3-49.84H146c-.48,9.25-3.86,33.28-6.09,49.84Z"/><path class="cls-2" d="M201.37,187v6.93c0,8.35,2.5,13,9.08,13,6.75,0,8.49-6.39,8.49-13.68,0-12.06-2.6-15.8-14.63-25.29s-18.53-15.64-18.53-32.25c0-14.79,4.47-29.71,24.73-29.69,20.71,0,23.91,14.78,23.91,27v6H217.26v-5.53c0-7.81-1.32-12.54-7.07-12.54s-7.1,4.89-7.1,12.33c0,7.92,1.5,11.81,11.37,19,16.79,12.42,21.94,19.63,21.94,38.41,0,15.92-5.58,31-26.52,31-20.76,0-25.82-13.23-25.82-28V187Z"/><path class="cls-2" d="M247.05,107.75h17.31v44.31H283V107.75h17.3V220H283V168H264.36v52H247.05Z"/><path class="cls-2" d="M389.63,137.54v52.4c0,21.51-9.13,31.68-28.14,31.68-18.24,0-26.45-10.43-26.45-31.38V137.41c0-21.49,10.82-31.3,27.55-31.3C379.6,106.11,389.63,115.94,389.63,137.54Zm-37-1.7v56.45c0,9.32,3.37,13.71,9.61,13.71,6.73,0,9.74-4.09,9.74-14V135.72c0-8.91-2.74-13.84-9.76-13.84C356,121.88,352.66,126.34,352.66,135.84Z"/><path class="cls-2" d="M402.45,220V107.75h20c4.47,15.84,17.86,71.23,19.05,77.18h.19c-.8-13.8-.84-29.59-.84-48V107.75h16V220H437.58C434,206.57,419.11,145,418,140.31h-.17c.82,13.59.75,28.8.75,49V220Z"/><path class="cls-2" d="M45.37,246.75h24c23.81,0,29.59,12.34,29.59,33.17v43c0,17.16-2.94,36-29.63,36h-24Zm17.31,97.49h5.55c11.37,0,13.12-7.32,13.12-18.94V278.55c0-10.32-1.82-16.92-13.23-16.92H62.68Z"/><path class="cls-2" d="M153.73,307.71H129.06v35.35h28.43L155.3,359H111.75V246.75h43.34v16.07h-26v29h24.67Z"/><path class="cls-2" d="M165.83,246.75h17.3V343.5h28.23L209.89,359H165.83Z"/><path class="cls-2" d="M235.72,246.75V359H218.41V246.75Z"/><path class="cls-2" d="M264,359,244.41,246.75h18.7l6,45.66c1.95,15.11,4.38,31,5.39,43.9h.31c1-12.17,3.58-28.19,5.38-43.54l5.61-46h18.53L285.16,359Z"/><path class="cls-2" d="M354,307.71H329.31v35.35h28.43L355.55,359H312V246.75h43.34v16.07h-26v29H354Z"/><path class="cls-2" d="M383.39,308.79V359H366.08V246.75h24c17.08,0,27.16,6.84,27.16,27v4.28c0,17.24-7.08,21.63-11.42,23.41,6.54,3.07,10.28,7.79,10.28,23,0,9.44-.16,27.68,1,34.48H400.39c-1.5-6.78-1.18-25.22-1.18-33.37,0-13.68-1.76-16.82-11.81-16.82Zm0-14.29h4c9.15,0,12.52-3.45,12.52-15.65V275c0-8.68-1.79-14-11.6-14h-4.89Z"/><path class="cls-2" d="M443.22,359V319.23a11.16,11.16,0,0,0-.64-3.81l-20.91-68.67h19.14c4.5,18.23,9.65,39.14,11.37,51.37h.16c2.32-13.26,7.35-33.47,11.5-51.37h18.38L460.86,316.9a19.69,19.69,0,0,0-.34,4.27V359Z"/></svg>